# xmcd CD database file
# Copyright (C) 1996 Ti Kan
#
# Track frame offsets:
#  150
#  15490
#  29365
#  42978
#  61020
#  76305
#  90540
#  109343
#  122383
#  139150
#  156605
#
# Disc length: 2278 seconds
#
# Revision: 1
# Processed by: cddbd v1.4b41PL1 Copyright (c) Steve Scherf et al.
# Submitted via: CDWizzard Release:4.14
#
DISCID=8608e40b
DTITLE=Lee Greenwood - Greatest Hits - Volume Two
DYEAR=1900
DGENRE=
TTITLE0=I Don't Mind the Thorns (When You're the Rose)
TTITLE1=Don't Underestimate my Love for You
TTITLE2=Hearts Aren't Made to Break (They're Made to Love)
TTITLE3=Didn't We
TTITLE4=Mornin' Ride
TTITLE5=Someone
TTITLE6=If There's any Justice
TTITLE7=Touch and go Crazy
TTITLE8=I Still Believe
TTITLE9=You Can't Fall In Love When You're Cryin'
TTITLE10=God Bless The USA
EXTD=
EXTT0=
EXTT1=
EXTT2=
EXTT3=
EXTT4=
EXTT5=
EXTT6=
EXTT7=
EXTT8=
EXTT9=
EXTT10=
PLAYORDER=
